PathFileType	4	(X/Y/Z)	/Users/itak/Documents/Research/Walk-IL/dataset/trc/00034_00004.trc
DataRate	CameraRate	NumFrames	NumMarkers	Units	OrigDataRate	OrigDataStartFrame	OrigNumFrames
100.000000	100.000000	4	53	mm	100.000000	0	806
Frame#	Time	RPSI			LPSI			L3			STRN			T10			C7			CLAV			RBAK			LBAK			LSHO			LUPA			LAEL			LAOL			LWTS			LWPS			LFRA			LIFD			LHPS			LHTS			RSHO			RUPA			RAEL			RAOL			RWTS			RWPS			RFRA			RIFD			RHTS			RHPS			RBHD			LFHD			RFHD			LBHD			LHIP			RHIP			RASI			LASI			LKNE			LTHI			LANK			LTIP			LTOE			LMT1			LMT5			LHEE			RKNE			RTHI			RANK			RTIP			RTOE			RMT1			RMT5			RHEE			
		X1	Y1	Z1	X2	Y2	Z2	X3	Y3	Z3	X4	Y4	Z4	X5	Y5	Z5	X6	Y6	Z6	X7	Y7	Z7	X8	Y8	Z8	X9	Y9	Z9	X10	Y10	Z10	X11	Y11	Z11	X12	Y12	Z12	X13	Y13	Z13	X14	Y14	Z14	X15	Y15	Z15	X16	Y16	Z16	X17	Y17	Z17	X18	Y18	Z18	X19	Y19	Z19	X20	Y20	Z20	X21	Y21	Z21	X22	Y22	Z22	X23	Y23	Z23	X24	Y24	Z24	X25	Y25	Z25	X26	Y26	Z26	X27	Y27	Z27	X28	Y28	Z28	X29	Y29	Z29	X30	Y30	Z30	X31	Y31	Z31	X32	Y32	Z32	X33	Y33	Z33	X34	Y34	Z34	X35	Y35	Z35	X36	Y36	Z36	X37	Y37	Z37	X38	Y38	Z38	X39	Y39	Z39	X40	Y40	Z40	X41	Y41	Z41	X42	Y42	Z42	X43	Y43	Z43	X44	Y44	Z44	X45	Y45	Z45	X46	Y46	Z46	X47	Y47	Z47	X48	Y48	Z48	X49	Y49	Z49	X50	Y50	Z50	X51	Y51	Z51	X52	Y52	Z52	X53	Y53	Z53	

1	0	420.9509582519531	1071.114135742188	907.1646728515625	447.7410278320312	1059.531860351562	1069.842651367188	443.6753540039062	1121.822875976562	999.123046875	234.7989807128906	1322.191040039062	1020.753723144531	479.5872192382812	1263.295776367188	1005.861755371094	443.0885314941406	1532.87890625	1027.330200195312	280.7198486328125	1447.661376953125	1025.225952148438	487.2400207519531	1395.37060546875	941.4915161132812	463.6820068359375	1488.905151367188	1122.400756835938	365.4661865234375	1498.743896484375	1200.44091796875	396.4103698730469	1371.447387695312	1275.075317382812	394.7881774902344	1153.947631835938	1298.375366210938	445.6962280273438	1142.190307617188	1206.151733398438	302.4932250976562	901.37548828125	1241.00830078125	379.7410888671875	886.733154296875	1283.493041992188	380.0751953125	1037.713134765625	1304.167602539062	278.3731079101562	716.17626953125	1219.236938476562	347.3073425292969	797.0724487304688	1281.162719726562	281.4830017089844	807.6321411132812	1251.862915039062	362.3873596191406	1525.510864257812	854.659912109375	372.3193664550781	1457.491333007812	781.48388671875	401.9897766113281	1188.237915039062	749.919189453125	402.0735778808594	1159.360229492188	845.5505981445312	260.2669372558594	934.312744140625	776.85546875	323.1094055175781	917.091064453125	711.6531372070312	385.7850952148438	1112.58984375	732.8753051757812	233.3087615966797	752.0338745117188	796.4982299804688	221.1868591308594	827.277587890625	764.32470703125	276.1144409179688	817.7991943359375	713.5747680664062	370.9554138183594	1719.15625	1106.632934570312	226.9715881347656	1732.951782226562	943.522705078125	203.7734069824219	1732.814575195312	1039.223999023438	399.5360412597656	1716.157470703125	965.2423706054688	364.3446655273438	957.5670166015625	1186.615112304688	290.8103332519531	959.39697265625	823.2290649414062	200.7071990966797	995.7608032226562	909.5897827148438	239.4833831787109	1007.746398925781	1141.652587890625	320.408935546875	514.0651245117188	1134.641723632812	346.0520629882812	651.7493286132812	1170.621459960938	414.8233032226562	38.27844619750977	1114.425537109375	401.5971069335938	284.9447021484375	1140.614990234375	187.8252563476562	40.2314567565918	1072.348876953125	245.9087677001953	48.76676940917969	1050.495239257812	294.07177734375	36.32556915283203	1147.651733398438	477.7392272949219	45.28660583496094	1055.928466796875	296.876953125	521.758544921875	871.8346557617188	274.2117004394531	792.6270751953125	827.4429931640625	414.8304138183594	43.73544311523438	880.9063720703125	325.7223510742188	401.3909606933594	868.989990234375	188.1774444580078	41.48089218139648	949.5577392578125	255.7342834472656	45.73905944824219	971.2266845703125	264.5136413574219	42.05694580078125	875.932373046875	474.8673706054688	44.76828765869141	919.7789916992188	
2	0.01	420.99267578125	1071.11083984375	907.1720581054688	447.7438659667969	1059.531616210938	1069.854736328125	443.6969604492188	1121.82666015625	999.130126953125	234.8176422119141	1322.173950195312	1020.689270019531	479.5635986328125	1263.3125	1005.902465820312	443.0341491699219	1532.896728515625	1027.343505859375	280.7223205566406	1447.643798828125	1025.197875976562	487.2536010742188	1395.39013671875	941.53955078125	463.5889587402344	1488.930053710938	1122.421020507812	365.3248291015625	1498.749755859375	1200.435546875	396.3301086425781	1371.450805664062	1275.065307617188	394.6620178222656	1153.961791992188	1298.38232421875	445.6519470214844	1142.20751953125	1206.158203125	302.3897399902344	901.3822631835938	1240.942504882812	379.6026306152344	886.7472534179688	1283.491577148438	379.9626770019531	1037.723266601562	1304.1689453125	278.3742065429688	716.1683349609375	1219.243041992188	347.1703796386719	797.0773315429688	1281.143188476562	281.4161987304688	807.6065063476562	1251.821411132812	362.4053039550781	1525.484130859375	854.64404296875	372.3779602050781	1457.482177734375	781.4715576171875	402.1254272460938	1188.216064453125	749.9668579101562	402.1931762695312	1159.353393554688	845.6116943359375	260.5068969726562	934.2677001953125	776.913330078125	323.3182983398438	917.03466796875	711.72998046875	385.944091796875	1112.554321289062	732.9246826171875	233.4491271972656	752.0026245117188	796.5299682617188	221.3377990722656	827.2448120117188	764.3482055664062	276.3128662109375	817.75341796875	713.6301879882812	370.7805786132812	1719.008544921875	1106.812255859375	227.1984252929688	1733.082275390625	943.309326171875	203.6971282958984	1732.86962890625	1038.91552734375	399.6641235351562	1716.107421875	965.5194091796875	364.3243713378906	957.5620727539062	1186.609619140625	290.8910522460938	959.4014282226562	823.2005615234375	200.7367553710938	995.7539672851562	909.541748046875	239.4689025878906	1007.735778808594	1141.621337890625	320.4098815917969	514.0661010742188	1134.622314453125	346.0378112792969	651.7470703125	1170.601318359375	414.8213806152344	38.2769889831543	1114.43505859375	401.5968933105469	284.9522705078125	1140.613525390625	187.8245239257812	40.23318862915039	1072.340209960938	245.9072113037109	48.76709365844727	1050.485961914062	294.0729370117188	36.32584762573242	1147.651245117188	477.734375	45.27928924560547	1055.925048828125	296.9021911621094	521.7498779296875	871.8206787109375	274.1416320800781	792.6123046875	827.4281005859375	414.8379516601562	43.72439575195312	880.9129638671875	325.7376403808594	401.3883972167969	868.9803466796875	188.1413421630859	41.49316024780273	949.5219116210938	255.7364349365234	45.74551391601562	971.2267456054688	264.5165710449219	42.05373764038086	875.939208984375	474.8663024902344	44.76632308959961	919.7760620117188	
3	0.02	421.0414123535156	1071.1064453125	907.18212890625	447.7470397949219	1059.532470703125	1069.870849609375	443.7225341796875	1121.830810546875	999.1402587890625	234.8382263183594	1322.14990234375	1020.606201171875	479.535400390625	1263.33349609375	1005.953552246094	442.9697265625	1532.91650390625	1027.35791015625	280.7246704101562	1447.62353515625	1025.162719726562	487.2700805664062	1395.414916992188	941.5975952148438	463.4729309082031	1488.957641601562	1122.442626953125	365.1454467773438	1498.750732421875	1200.420043945312	396.2126770019531	1371.458251953125	1275.055053710938	394.5170593261719	1153.978149414062	1298.387084960938	445.5874328613281	1142.228271484375	1206.17041015625	302.2610473632812	901.3884887695312	1240.862670898438	379.4364013671875	886.7643432617188	1283.488037109375	379.8226623535156	1037.735717773438	1304.169189453125	278.370849609375	716.1583251953125	1219.24560546875	346.9947204589844	797.086181640625	1281.115966796875	281.329345703125	807.5736694335938	1251.764282226562	362.4264831542969	1525.454223632812	854.6199951171875	372.4530334472656	1457.46875	781.4541015625	402.3023071289062	1188.187255859375	750.023681640625	402.3416748046875	1159.34326171875	845.687744140625	260.807861328125	934.20751953125	776.9802856445312	323.5914306640625	916.9657592773438	711.8247680664062	386.1576538085938	1112.509155273438	732.9896240234375	233.6558532714844	751.9532470703125	796.5796508789062	221.5612487792969	827.202880859375	764.3922729492188	276.5881652832031	817.6961059570312	713.709716796875	370.5517883300781	1718.824951171875	1107.034545898438	227.4709320068359	1733.234130859375	943.047607421875	203.5919647216797	1732.946166992188	1038.539916992188	399.8174438476562	1716.048583984375	965.8575439453125	364.2931213378906	957.5554809570312	1186.602172851562	290.9986572265625	959.4060668945312	823.1663818359375	200.7748107910156	995.74365234375	909.481201171875	239.4501037597656	1007.723205566406	1141.580688476562	320.41357421875	514.06787109375	1134.595581054688	346.0224609375	651.7443237304688	1170.576904296875	414.8196716308594	38.27575302124023	1114.446166992188	401.5982971191406	284.9616394042969	1140.61181640625	187.8258666992188	40.23591232299805	1072.331787109375	245.9064788818359	48.76699829101562	1050.4755859375	294.0731811523438	36.32633590698242	1147.648803710938	477.7319946289062	45.27322006225586	1055.920654296875	296.9353637695312	521.74169921875	871.8018188476562	274.0591125488281	792.5909423828125	827.4066772460938	414.8468627929688	43.71257019042969	880.9200439453125	325.7568969726562	401.3842163085938	868.9697875976562	188.1088104248047	41.50392532348633	949.4910278320312	255.73876953125	45.75192260742188	971.2263793945312	264.518798828125	42.05055618286133	875.9459228515625	474.8663635253906	44.76301193237305	919.7739868164062	
4	0.03	421.0937805175781	1071.100952148438	907.1946411132812	447.7499694824219	1059.535278320312	1069.890258789062	443.7499389648438	1121.835083007812	999.1533203125	234.8577270507812	1322.119140625	1020.507263183594	479.5036315917969	1263.358154296875	1006.012939453125	442.8986511230469	1532.93603515625	1027.371948242188	280.7259216308594	1447.602783203125	1025.122192382812	487.2886962890625	1395.443603515625	941.66259765625	463.33935546875	1488.984985351562	1122.463256835938	364.9352722167969	1498.74462890625	1200.3916015625	396.0553588867188	1371.470947265625	1275.045532226562	394.3642272949219	1153.99560546875	1298.387817382812	445.5011596679688	1142.25146484375	1206.189453125	302.1148986816406	901.392333984375	1240.775512695312	379.2530212402344	886.783447265625	1283.481811523438	379.6611938476562	1037.749877929688	1304.167602539062	278.3536987304688	716.147216796875	1219.238037109375	346.786376953125	797.0991821289062	1281.080688476562	281.2240295410156	807.5350341796875	1251.692016601562	362.4505004882812	1525.423583984375	854.5872802734375	372.5436706542969	1457.4501953125	781.4313354492188	402.5162353515625	1188.151977539062	750.086181640625	402.5111083984375	1159.3291015625	845.7750244140625	261.1524047851562	934.1340942382812	777.0482788085938	323.9227294921875	916.8883056640625	711.931884765625	386.4231567382812	1112.4560546875	733.068359375	233.9366302490234	751.8817138671875	796.6513671875	221.8632507324219	827.1524047851562	764.4612426757812	276.9439392089844	817.6326293945312	713.8126220703125	370.2730102539062	1718.614379882812	1107.28955078125	227.7727355957031	1733.396728515625	942.7516479492188	203.4594268798828	1733.045288085938	1038.119018554688	399.9893798828125	1715.985473632812	966.23876953125	364.2507629394531	957.5477905273438	1186.593139648438	291.1307983398438	959.4102783203125	823.1286010742188	200.8204040527344	995.7294311523438	909.41064453125	239.4275665283203	1007.709106445312	1141.531982421875	320.4199829101562	514.07080078125	1134.561645507812	346.0074462890625	651.7410888671875	1170.550048828125	414.8186340332031	38.27545547485352	1114.4580078125	401.6015319824219	284.9721984863281	1140.609497070312	187.82958984375	40.24007797241211	1072.32470703125	245.9067687988281	48.76640319824219	1050.465087890625	294.0720520019531	36.32724380493164	1147.64404296875	477.7326354980469	45.2697868347168	1055.916381835938	296.9751281738281	521.7348022460938	871.7789306640625	273.9794616699219	792.5626831054688	827.373291015625	414.8566284179688	43.70108032226562	880.9268188476562	325.7792663574219	401.3783874511719	868.9586791992188	188.0845489501953	41.51169204711914	949.4690551757812	255.7411041259766	45.75734710693359	971.225341796875	264.5202331542969	42.04805374145508	875.9514770507812	474.8677062988281	44.75860595703125	919.7728271484375	
